REM DIRINDEX 1\2\4,1\2\5,1\2\6,1\3\7,1\3\8,1\3\9,1\3\10
REM DIRNAME cjc057,folder01,folder02,folder03,folder04,folder05,folder06,folder07,folder08,folder09
TITLE ""
FILE "b_204.mp3" MP3
  TRACK 01 AUDIO
    TITLE "0:"
    INDEX 01 00:00:00
  TRACK 02 AUDIO
    TITLE "7:cjc057_10312"
    INDEX 01 00:00:15
  TRACK 03 AUDIO
    TITLE "0:"
    INDEX 01 00:01:60
  TRACK 04 AUDIO
    TITLE "8:cjc057_10313"
    INDEX 01 00:02:14
  TRACK 05 AUDIO
    TITLE "0:"
    INDEX 01 00:03:41
  TRACK 06 AUDIO
    TITLE "9:cjc057_10314"
    INDEX 01 00:04:07
  TRACK 07 AUDIO
    TITLE "0:"
    INDEX 01 00:08:03
  TRACK 08 AUDIO
    TITLE "7:cjc057_10315"
    INDEX 01 00:09:10
  TRACK 09 AUDIO
    TITLE "0:"
    INDEX 01 00:10:29
  TRACK 10 AUDIO
    TITLE "8:cjc057_10316"
    INDEX 01 00:10:57
  TRACK 11 AUDIO
    TITLE "0:"
    INDEX 01 00:13:24
  TRACK 12 AUDIO
    TITLE "9:cjc057_10317"
    INDEX 01 00:13:67
  TRACK 13 AUDIO
    TITLE "0:"
    INDEX 01 00:17:25
  TRACK 14 AUDIO
    TITLE "7:cjc057_10318"
    INDEX 01 00:18:31
  TRACK 15 AUDIO
    TITLE "0:"
    INDEX 01 00:19:50
  TRACK 16 AUDIO
    TITLE "8:cjc057_10319"
    INDEX 01 00:20:08
  TRACK 17 AUDIO
    TITLE "0:"
    INDEX 01 00:21:39
  TRACK 18 AUDIO
    TITLE "9:cjc057_10320"
    INDEX 01 00:22:03
  TRACK 19 AUDIO
    TITLE "0:"
    INDEX 01 00:27:08
  TRACK 20 AUDIO
    TITLE "7:cjc057_10321"
    INDEX 01 00:28:15
  TRACK 21 AUDIO
    TITLE "0:"
    INDEX 01 00:29:36
  TRACK 22 AUDIO
    TITLE "8:cjc057_10322"
    INDEX 01 00:29:66
  TRACK 23 AUDIO
    TITLE "0:"
    INDEX 01 00:31:33
  TRACK 24 AUDIO
    TITLE "9:cjc057_10323"
    INDEX 01 00:32:00
  TRACK 25 AUDIO
    TITLE "0:"
    INDEX 01 00:36:23
  TRACK 26 AUDIO
    TITLE "7:cjc057_10324"
    INDEX 01 00:37:32
  TRACK 27 AUDIO
    TITLE "0:"
    INDEX 01 00:38:45
  TRACK 28 AUDIO
    TITLE "8:cjc057_10325"
    INDEX 01 00:39:00
  TRACK 29 AUDIO
    TITLE "0:"
    INDEX 01 00:40:15
  TRACK 30 AUDIO
    TITLE "9:cjc057_10326"
    INDEX 01 00:40:60
  TRACK 31 AUDIO
    TITLE "0:"
    INDEX 01 00:43:66
  TRACK 32 AUDIO
    TITLE "7:cjc057_10327"
    INDEX 01 00:44:69
  TRACK 33 AUDIO
    TITLE "0:"
    INDEX 01 00:46:17
  TRACK 34 AUDIO
    TITLE "8:cjc057_10328"
    INDEX 01 00:46:51
  TRACK 35 AUDIO
    TITLE "0:"
    INDEX 01 00:48:12
  TRACK 36 AUDIO
    TITLE "9:cjc057_10329"
    INDEX 01 00:48:55
  TRACK 37 AUDIO
    TITLE "0:"
    INDEX 01 00:52:30
  TRACK 38 AUDIO
    TITLE "7:cjc057_10330"
    INDEX 01 00:53:33
  TRACK 39 AUDIO
    TITLE "0:"
    INDEX 01 00:54:54
  TRACK 40 AUDIO
    TITLE "8:cjc057_10331"
    INDEX 01 00:55:10
  TRACK 41 AUDIO
    TITLE "0:"
    INDEX 01 00:57:66
  TRACK 42 AUDIO
    TITLE "9:cjc057_10332"
    INDEX 01 00:58:32
  TRACK 43 AUDIO
    TITLE "0:"
    INDEX 01 01:01:38
  TRACK 44 AUDIO
    TITLE "7:cjc057_10333"
    INDEX 01 01:02:44
  TRACK 45 AUDIO
    TITLE "0:"
    INDEX 01 01:03:63
  TRACK 46 AUDIO
    TITLE "8:cjc057_10334"
    INDEX 01 01:04:17
  TRACK 47 AUDIO
    TITLE "0:"
    INDEX 01 01:06:69
  TRACK 48 AUDIO
    TITLE "9:cjc057_10335"
    INDEX 01 01:07:35
  TRACK 49 AUDIO
    TITLE "0:"
    INDEX 01 01:10:65
  TRACK 50 AUDIO
    TITLE "7:cjc057_10336"
    INDEX 01 01:11:70
  TRACK 51 AUDIO
    TITLE "0:"
    INDEX 01 01:13:12
  TRACK 52 AUDIO
    TITLE "8:cjc057_10337"
    INDEX 01 01:13:44
  TRACK 53 AUDIO
    TITLE "0:"
    INDEX 01 01:16:22
  TRACK 54 AUDIO
    TITLE "9:cjc057_10338"
    INDEX 01 01:16:63
  TRACK 55 AUDIO
    TITLE "0:"
    INDEX 01 01:20:46
  TRACK 56 AUDIO
    TITLE "7:cjc057_10339"
    INDEX 01 01:21:51
  TRACK 57 AUDIO
    TITLE "0:"
    INDEX 01 01:23:05
  TRACK 58 AUDIO
    TITLE "8:cjc057_10340"
    INDEX 01 01:23:36
  TRACK 59 AUDIO
    TITLE "0:"
    INDEX 01 01:25:58
  TRACK 60 AUDIO
    TITLE "9:cjc057_10341"
    INDEX 01 01:26:27
  TRACK 61 AUDIO
    TITLE "0:"
    INDEX 01 01:31:14
  TRACK 62 AUDIO
    TITLE "7:cjc057_10342"
    INDEX 01 01:32:23
  TRACK 63 AUDIO
    TITLE "0:"
    INDEX 01 01:33:42
  TRACK 64 AUDIO
    TITLE "8:cjc057_10343"
    INDEX 01 01:33:74
  TRACK 65 AUDIO
    TITLE "0:"
    INDEX 01 01:37:22
  TRACK 66 AUDIO
    TITLE "9:cjc057_10344"
    INDEX 01 01:37:66
  TRACK 67 AUDIO
    TITLE "0:"
    INDEX 01 01:41:48
